<?xml version="1.0" encoding="UTF-8" standalone="no"?>
<!-- Created with Inkscape (http://www.inkscape.org/) -->

<svg
   xmlns:osb="http://www.openswatchbook.org/uri/2009/osb"
   xmlns:dc="http://purl.org/dc/elements/1.1/"
   xmlns:cc="http://creativecommons.org/ns#"
   xmlns:rdf="http://www.w3.org/1999/02/22-rdf-syntax-ns#"
   xmlns:svg="http://www.w3.org/2000/svg"
   xmlns="http://www.w3.org/2000/svg"
   xmlns:xlink="http://www.w3.org/1999/xlink"
   xmlns:sodipodi="http://sodipodi.sourceforge.net/DTD/sodipodi-0.dtd"
   xmlns:inkscape="http://www.inkscape.org/namespaces/inkscape"
   width="744.09448819"
   height="1052.3622047"
   id="svg2"
   version="1.1"
   inkscape:version="0.48.4 r9939"
   sodipodi:docname="SOASCAPE.svg">
  <defs
     id="defs4">
    <linearGradient
       inkscape:collect="always"
       id="linearGradient3792">
      <stop
         style="stop-color:#009eff;stop-opacity:1;"
         offset="0"
         id="stop3794" />
      <stop
         style="stop-color:#009eff;stop-opacity:0;"
         offset="1"
         id="stop3796" />
    </linearGradient>
    <linearGradient
       inkscape:collect="always"
       id="linearGradient3784">
      <stop
         style="stop-color:#009eff;stop-opacity:1;"
         offset="0"
         id="stop3786" />
      <stop
         style="stop-color:#009eff;stop-opacity:0;"
         offset="1"
         id="stop3788" />
    </linearGradient>
    <linearGradient
       id="linearGradient5332">
      <stop
         style="stop-color:#0000ff;stop-opacity:1;"
         offset="0"
         id="stop5334" />
      <stop
         id="stop5340"
         offset="0.5"
         style="stop-color:#0000ff;stop-opacity:0.49803922;" />
      <stop
         style="stop-color:#0000ff;stop-opacity:0;"
         offset="1"
         id="stop5336" />
    </linearGradient>
    <linearGradient
       id="linearGradient5313">
      <stop
         style="stop-color:#0000ff;stop-opacity:1;"
         offset="0"
         id="stop5315" />
      <stop
         style="stop-color:#0000ff;stop-opacity:0;"
         offset="1"
         id="stop5317" />
    </linearGradient>
    <linearGradient
       id="linearGradient5307"
       osb:paint="solid">
      <stop
         style="stop-color:#ff0000;stop-opacity:1;"
         offset="0"
         id="stop5309" />
    </linearGradient>
    <radialGradient
       inkscape:collect="always"
       xlink:href="#linearGradient3784"
       id="radialGradient3790"
       cx="-1073.9185"
       cy="-632.54071"
       fx="-1073.9185"
       fy="-632.54071"
       r="351.34369"
       gradientTransform="matrix(1,0,0,1.0660377,0,41.771544)"
       gradientUnits="userSpaceOnUse" />
    <radialGradient
       inkscape:collect="always"
       xlink:href="#linearGradient3792"
       id="radialGradient3798"
       cx="-297.90319"
       cy="-573.26134"
       fx="-297.90319"
       fy="-573.26134"
       r="739.74836"
       gradientTransform="matrix(1,0,0,0.98178264,0,-10.443308)"
       gradientUnits="userSpaceOnUse" />
  </defs>
  <sodipodi:namedview
     id="base"
     pagecolor="#ffffff"
     bordercolor="#666666"
     borderopacity="1.0"
     inkscape:pageopacity="0.0"
     inkscape:pageshadow="2"
     inkscape:zoom="0.45254834"
     inkscape:cx="-311.80747"
     inkscape:cy="545.935"
     inkscape:document-units="px"
     inkscape:current-layer="layer1"
     showgrid="false"
     inkscape:window-width="1600"
     inkscape:window-height="1153"
     inkscape:window-x="-4"
     inkscape:window-y="-4"
     inkscape:window-maximized="1" />
  <metadata
     id="metadata7">
    <rdf:RDF>
      <cc:Work
         rdf:about="">
        <dc:format>image/svg+xml</dc:format>
        <dc:type
           rdf:resource="http://purl.org/dc/dcmitype/StillImage" />
        <dc:title></dc:title>
      </cc:Work>
    </rdf:RDF>
  </metadata>
  <g
     inkscape:label="Layer 1"
     inkscape:groupmode="layer"
     id="layer1">
    <text
       xml:space="preserve"
       style="font-size:40px;font-style:normal;font-weight:normal;line-height:125%;letter-spacing:0px;word-spacing:0px;fill:#000000;fill-opacity:1;stroke:none;font-family:Sans"
       x="105.71429"
       y="452.36218"
       id="text2993"
       sodipodi:linespacing="125%"><tspan
         sodipodi:role="line"
         id="tspan2995"
         x="105.71429"
         y="452.36218" /></text>
    <g
       transform="scale(0.99925226,1.0007483)"
       style="font-size:104.53051758px;font-style:normal;font-weight:normal;line-height:125%;letter-spacing:0px;word-spacing:0px;fill:#f50000;fill-opacity:1;stroke:none;font-family:Sans"
       id="text2985"
       inkscape:export-filename="C:\Documents and Settings\Brendan\Desktop\path5381.png"
       inkscape:export-xdpi="90"
       inkscape:export-ydpi="90">
      <path
         d="m 80.07102,291.51169 9.340373,-0.81665 c 0.442335,3.74298 1.471646,6.8139 3.087938,9.21278 1.616257,2.3989 4.125735,4.33843 7.528439,5.81859 3.40266,1.48018 7.23068,2.22026 11.48407,2.22025 3.77694,10e-6 7.11157,-0.56143 10.0039,-1.68433 2.89223,-1.12287 5.04443,-2.66259 6.45659,-4.61914 1.41206,-1.95653 2.11812,-4.09172 2.11818,-6.40556 -6e-5,-2.34783 -0.6806,-4.39795 -2.04162,-6.15036 -1.36112,-1.75235 -3.60689,-3.22401 -6.73731,-4.41498 -2.00763,-0.78259 -6.44813,-1.99905 -13.32152,-3.64938 -6.87345,-1.65027 -11.688248,-3.207 -14.444403,-4.67019 -3.572835,-1.87143 -6.235435,-4.19377 -7.987806,-6.967 -1.752392,-2.77314 -2.628583,-5.87809 -2.628575,-9.31485 -8e-6,-3.77692 1.071837,-7.30721 3.215538,-10.59086 2.14368,-3.28352 5.274148,-5.77599 9.391414,-7.4774 4.117226,-1.70127 8.693832,-2.55194 13.729842,-2.55202 5.54634,8e-5 10.43769,0.89328 14.67408,2.67962 4.23629,1.78648 7.49436,4.41505 9.77422,7.88572 2.27974,3.4708 3.5047,7.4009 3.6749,11.79031 l -9.4935,0.71456 c -0.51045,-4.72967 -2.23731,-8.30249 -5.18059,-10.71846 -2.94336,-2.41584 -7.29029,-3.62379 -13.04079,-3.62386 -5.98876,7e-5 -10.352698,1.09743 -13.091836,3.2921 -2.739181,2.19479 -4.108761,4.84038 -4.108743,7.93677 -1.8e-5,2.68817 0.969747,4.89991 2.909296,6.63523 1.905482,1.73542 6.881903,3.51332 14.929283,5.33371 8.04731,1.82048 13.56816,3.41124 16.56258,4.77227 4.35538,2.00762 7.57091,4.55113 9.64661,7.63052 2.07558,3.07946 3.1134,6.62676 3.11346,10.64191 -6e-5,3.98116 -1.13996,7.73261 -3.4197,11.25438 -2.27986,3.52179 -5.55494,6.26095 -9.82526,8.21749 -4.27041,1.95654 -9.0767,2.93481 -14.41888,2.93481 -6.77137,0 -12.445347,-0.98678 -17.021935,-2.96033 -4.576628,-1.97356 -8.166458,-4.9424 -10.769502,-8.90653 -2.603061,-3.96412 -3.972641,-8.44715 -4.108743,-13.44912 z"
         style="fill:#f50000"
         id="path5443" />
      <path
         d="m 150.25142,279.1089 c 0,-12.41976 3.33463,-22.14292 10.0039,-29.16953 6.66924,-7.02647 15.27803,-10.53974 25.82639,-10.53982 6.9074,8e-5 13.13431,1.65038 18.68074,4.95091 5.54632,3.30067 9.77415,7.9028 12.68352,13.8064 2.90922,5.90371 4.36386,12.59849 4.36394,20.08435 -8e-5,7.58802 -1.53128,14.37637 -4.59363,20.36508 -3.06248,5.98874 -7.4009,10.52281 -13.01527,13.60224 -5.61449,3.07943 -11.67126,4.61914 -18.17034,4.61914 -7.0436,0 -13.33856,-1.70134 -18.88491,-5.10403 -5.5464,-3.40267 -9.74871,-8.04734 -12.60695,-13.934 -2.85827,-5.88662 -4.28739,-12.11353 -4.28739,-18.68074 z m 10.20806,0.15312 c -2e-5,9.01714 2.4244,16.12024 7.27324,21.30932 4.8488,5.18911 10.9311,7.78365 18.24691,7.78365 7.45183,0 13.58517,-2.62006 18.40002,-7.86021 4.81474,-5.24012 7.22214,-12.67498 7.2222,-22.30461 -6e-5,-6.09076 -1.02938,-11.40745 -3.08794,-15.95009 -2.05868,-4.54253 -5.07006,-8.0643 -9.03413,-10.56534 -3.96418,-2.50091 -8.41318,-3.75139 -13.34703,-3.75146 -7.00957,7e-5 -13.04083,2.40747 -18.09379,7.2222 -5.053,4.81486 -7.5795,12.8537 -7.57948,24.11654 z"
         style="fill:#f50000"
         id="path5445" />
      <path
         d="m 226.30145,315.55167 28.73568,-74.82507 10.66742,0 30.62418,74.82507 -11.27991,0 -8.72789,-22.66189 -31.2877,0 -8.21748,22.66189 z m 21.59004,-30.72626 25.36702,0 -7.80916,-20.72236 c -2.38192,-6.29491 -4.15131,-22.06566 -5.30819,-15.51625 -0.95279,4.79785 -2.29684,9.56161 -4.03218,14.29129 z"
         style="fill:#f50000"
         id="path5447"
         inkscape:connector-curvature="0"
         sodipodi:nodetypes="ccccccccccccccc" />
      <path
         d="m 300.97339,291.51169 9.34038,-0.81665 c 0.44233,3.74298 1.47164,6.8139 3.08793,9.21278 1.61626,2.3989 4.12574,4.33843 7.52845,5.81859 3.40266,1.48018 7.23067,2.22026 11.48406,2.22025 3.77695,10e-6 7.11157,-0.56143 10.0039,-1.68433 2.89224,-1.12287 5.04443,-2.66259 6.4566,-4.61914 1.41206,-1.95653 2.11812,-4.09172 2.11817,-6.40556 -5e-5,-2.34783 -0.68059,-4.39795 -2.04161,-6.15036 -1.36113,-1.75235 -3.6069,-3.22401 -6.73732,-4.41498 -2.00763,-0.78259 -6.44813,-1.99905 -13.32152,-3.64938 -6.87345,-1.65027 -11.68824,-3.207 -14.4444,-4.67019 -3.57283,-1.87143 -6.23543,-4.19377 -7.9878,-6.967 -1.7524,-2.77314 -2.62859,-5.87809 -2.62858,-9.31485 -1e-5,-3.77692 1.07184,-7.30721 3.21554,-10.59086 2.14368,-3.28352 5.27415,-5.77599 9.39141,-7.4774 4.11723,-1.70127 8.69384,-2.55194 13.72984,-2.55202 5.54634,8e-5 10.4377,0.89328 14.67408,2.67962 4.2363,1.78648 7.49436,4.41505 9.77422,7.88572 2.27974,3.4708 3.50471,7.4009 3.6749,11.79031 l -9.49349,0.71456 c -0.51046,-4.72967 -2.23732,-8.30249 -5.18059,-10.71846 -2.94337,-2.41584 -7.2903,-3.62379 -13.0408,-3.62386 -5.98875,7e-5 -10.35269,1.09743 -13.09183,3.2921 -2.73918,2.19479 -4.10876,4.84038 -4.10875,7.93677 -10e-6,2.68817 0.96975,4.89991 2.9093,6.63523 1.90548,1.73542 6.88191,3.51332 14.92929,5.33371 8.04731,1.82048 13.56816,3.41124 16.56257,4.77227 4.35538,2.00762 7.57092,4.55113 9.64662,7.63052 2.07557,3.07946 3.11339,6.62676 3.11345,10.64191 -6e-5,3.98116 -1.13996,7.73261 -3.4197,11.25438 -2.27985,3.52179 -5.55494,6.26095 -9.82525,8.21749 -4.27042,1.95654 -9.07671,2.93481 -14.41888,2.93481 -6.77138,0 -12.44535,-0.98678 -17.02194,-2.96033 -4.57663,-1.97356 -8.16646,-4.9424 -10.7695,-8.90653 -2.60306,-3.96412 -3.97264,-8.44715 -4.10875,-13.44912 z"
         style="fill:#f50000"
         id="path5449" />
      <path
         d="m 427.55332,289.31696 9.90182,2.50097 c -2.07571,8.13244 -5.81016,14.33383 -11.20335,18.60419 -5.39331,4.27037 -11.98601,6.40555 -19.77811,6.40555 -8.0644,0 -14.62307,-1.64179 -19.67603,-4.92538 -5.05301,-3.28359 -8.89804,-8.03884 -11.53511,-14.26577 -2.63709,-6.22689 -3.95563,-12.91316 -3.95562,-20.05883 -10e-6,-7.79211 1.48867,-14.58897 4.46602,-20.3906 2.97734,-5.80151 7.21368,-10.20799 12.70904,-13.21943 5.49531,-3.01131 11.54357,-4.51699 18.14482,-4.51707 7.48586,8e-5 13.78082,1.90558 18.88491,5.71651 5.10396,3.81108 8.65976,9.1703 10.66742,16.0777 l -9.7487,2.29681 c -1.73543,-5.44424 -4.25341,-9.40837 -7.55396,-11.89239 -3.30066,-2.48389 -7.45193,-3.72587 -12.45383,-3.72594 -5.75058,7e-5 -10.55687,1.37815 -14.41888,4.13426 -3.86208,2.75624 -6.57571,6.45666 -8.14093,11.10127 -1.56525,4.64471 -2.34787,9.43399 -2.34785,14.36784 -2e-5,6.36305 0.92721,11.91793 2.78169,16.66465 1.85445,4.74677 4.73822,8.29406 8.65133,10.6419 3.91306,2.34787 8.1494,3.52179 12.70903,3.52179 5.54634,0 10.24204,-1.59926 14.08712,-4.79779 3.84498,-3.19851 6.44803,-7.94525 7.80917,-14.24024 z"
         style="fill:#f50000"
         id="path5451" />
      <path
         d="m 441.48733,315.55167 28.73568,-74.82507 10.66742,0 30.62418,74.82507 -11.27991,0 -8.72789,-22.66189 -31.28769,0 -8.21749,22.66189 z m 21.59004,-30.72626 25.36703,0 -7.80917,-20.72236 c -2.38191,-6.29491 -4.15131,-11.46699 -5.30819,-15.51625 -0.95278,4.79785 -2.29684,9.56161 -4.03218,14.29129 z"
         style="fill:#f50000"
         id="path5453" />
      <path
         d="m 519.52794,315.55167 0,-74.82507 28.22528,0 c 4.96788,7e-5 8.76187,0.23826 11.38198,0.71456 3.67485,0.61256 6.75428,1.77798 9.23829,3.49626 2.48391,1.71843 4.48298,4.12583 5.99724,7.2222 1.51413,3.09651 2.27123,6.49919 2.27129,10.20806 -6e-5,6.36307 -2.02466,11.74782 -6.07379,16.15425 -4.04925,4.40652 -11.36502,6.60975 -21.94733,6.60972 l -19.19115,0 0,30.42002 z m 9.90181,-39.24999 19.34427,0 c 6.39701,4e-5 10.93959,-1.1909 13.62776,-3.57282 2.68807,-2.38183 4.03213,-5.73348 4.03218,-10.05494 -5e-5,-3.13041 -0.79117,-5.81002 -2.37337,-8.03884 -1.5823,-2.2287 -3.66644,-3.70036 -6.25244,-4.41499 -1.66736,-0.44228 -4.74678,-0.66346 -9.23829,-0.66352 l -19.14011,0 z"
         style="fill:#f50000"
         id="path5455" />
      <path
         d="m 589.55522,315.55167 0,-74.82507 54.10271,0 0,8.82997 -44.2009,0 0,22.91709 41.39368,0 0,8.77893 -41.39368,0 0,25.46911 45.93627,0 0,8.82997 z"
         style="fill:#f50000"
         id="path5457" />
    </g>
    <path
       style="fill:#ff0000;stroke:none"
       d="m 515.67953,235.20514 c -59.61912,1.24759 -157.59474,-9.33545 -270.0668,-40.33736 -75.00638,-20.67483 -110.9427,-28.04356 -155.036612,-12.71622 28.813132,-26.03999 215.334082,-22.52994 349.050102,12.83156 77.19037,20.41317 132.60961,28.15949 212.83697,9.91609 -58.87759,18.89709 -59.56778,25.15872 -136.78366,30.30593 z"
       id="path5381"
       inkscape:connector-curvature="0"
       sodipodi:nodetypes="cscscc"
       inkscape:export-xdpi="90"
       inkscape:export-ydpi="90" />
    <path
       style="fill:#009eff;fill-opacity:1;stroke:none"
       d="m 515.01656,448.96305 c -59.61912,1.24759 -157.59474,-9.33545 -270.0668,-40.33736 -75.00638,-20.67483 -110.9427,-28.04356 -155.036609,-12.71622 28.813129,-26.03999 215.334079,-22.52994 349.050099,12.83156 77.19037,20.41317 132.60961,28.15949 212.83697,9.91609 -58.87759,18.89709 -59.56778,25.15872 -136.78366,30.30593 z"
       id="path5381-4"
       inkscape:connector-curvature="0"
       sodipodi:nodetypes="cscscc" />
    <text
       xml:space="preserve"
       style="font-size:100.98973846px;font-style:normal;font-variant:normal;font-weight:bold;font-stretch:normal;text-align:start;line-height:80.00000119%;letter-spacing:0px;word-spacing:0px;writing-mode:lr-tb;text-anchor:start;fill:#000000;fill-opacity:1;stroke:none;font-family:Sans;-inkscape-font-specification:Sans Bold"
       x="89.720146"
       y="449.76166"
       id="text5592"
       sodipodi:linespacing="80.000001%"><tspan
         sodipodi:role="line"
         id="tspan5594"
         x="89.720146"
         y="449.76166">SOASCAPE</tspan></text>
  </g>
</svg>
